<mxfile host="app.diagrams.net" agent="Mozilla/5.0 (Windows NT 10.0; Win64; x64) AppleWebKit/537.36 (KHTML, like Gecko) Chrome/131.0.0.0 Safari/537.36" version="26.0.1">
  <diagram name="第 1 页" id="UEBIbAkwNvi9270jXavC">
    <mxGraphModel>
      <root>
        <mxCell id="0" />
        <mxCell id="1" parent="0" />
        <mxCell id="2" value="整體架構 起始" style="rounded=1;arcSize=40;strokeWidth=2" vertex="1" parent="1">
          <mxGeometry x="8" y="112" width="131" height="54" as="geometry" />
        </mxCell>
        <mxCell id="3" value="接收 Server 傳送資料" style="rounded=1;arcSize=40;strokeWidth=2" vertex="1" parent="1">
          <mxGeometry x="189" y="112" width="181" height="54" as="geometry" />
        </mxCell>
        <mxCell id="4" value="處理資料" style="rounded=1;arcSize=40;strokeWidth=2" vertex="1" parent="1">
          <mxGeometry x="504" y="60" width="94" height="54" as="geometry" />
        </mxCell>
        <mxCell id="5" value="顯示錯誤訊息" style="rounded=1;arcSize=40;strokeWidth=2" vertex="1" parent="1">
          <mxGeometry x="488" y="164" width="126" height="54" as="geometry" />
        </mxCell>
        <mxCell id="6" value="判斷接收結果" style="rounded=1;arcSize=40;strokeWidth=2" vertex="1" parent="1">
          <mxGeometry x="732" y="60" width="126" height="54" as="geometry" />
        </mxCell>
        <mxCell id="7" value="顯示成功訊息" style="rounded=1;arcSize=40;strokeWidth=2" vertex="1" parent="1">
          <mxGeometry x="944" y="8" width="126" height="54" as="geometry" />
        </mxCell>
        <mxCell id="8" value="顯示失敗訊息" style="rounded=1;arcSize=40;strokeWidth=2" vertex="1" parent="1">
          <mxGeometry x="944" y="112" width="126" height="54" as="geometry" />
        </mxCell>
        <mxCell id="9" value="" style="curved=1;startArrow=none;endArrow=block;exitX=1;exitY=0.5;entryX=0;entryY=0.5;" edge="1" parent="1" source="2" target="3">
          <mxGeometry relative="1" as="geometry">
            <Array as="points" />
          </mxGeometry>
        </mxCell>
        <mxCell id="10" value="資料正確" style="curved=1;startArrow=none;endArrow=block;exitX=0.93;exitY=0;entryX=0;entryY=0.5;" edge="1" parent="1" source="3" target="4">
          <mxGeometry relative="1" as="geometry">
            <Array as="points">
              <mxPoint x="429" y="87" />
            </Array>
          </mxGeometry>
        </mxCell>
        <mxCell id="11" value="資料錯誤" style="curved=1;startArrow=none;endArrow=block;exitX=0.93;exitY=1;entryX=0;entryY=0.5;" edge="1" parent="1" source="3" target="5">
          <mxGeometry relative="1" as="geometry">
            <Array as="points">
              <mxPoint x="429" y="191" />
            </Array>
          </mxGeometry>
        </mxCell>
        <mxCell id="12" value="處理完成" style="curved=1;startArrow=none;endArrow=block;exitX=1;exitY=0.5;entryX=0;entryY=0.5;" edge="1" parent="1" source="4" target="6">
          <mxGeometry relative="1" as="geometry">
            <Array as="points" />
          </mxGeometry>
        </mxCell>
        <mxCell id="13" value="成功" style="curved=1;startArrow=none;endArrow=block;exitX=0.94;exitY=0;entryX=0;entryY=0.5;" edge="1" parent="1" source="6" target="7">
          <mxGeometry relative="1" as="geometry">
            <Array as="points">
              <mxPoint x="901" y="35" />
            </Array>
          </mxGeometry>
        </mxCell>
        <mxCell id="14" value="失敗" style="curved=1;startArrow=none;endArrow=block;exitX=0.94;exitY=1;entryX=0;entryY=0.5;" edge="1" parent="1" source="6" target="8">
          <mxGeometry relative="1" as="geometry">
            <Array as="points">
              <mxPoint x="901" y="139" />
            </Array>
          </mxGeometry>
        </mxCell>
      </root>
    </mxGraphModel>
  </diagram>
</mxfile>
